. 
 
http://www.torrenting.com          :     Once & For all ;)


               www . Torrenting . Com 

(((((((((((((= Enjoy No RAR releases =))))))))))))))))))))


...................................NFO:....................................

.





UUUUUUUUUUUUUUUUUUUUUUUU
UUUUUUUUUUUUUUUUUUUUUUUUUUUUUU
UUUUUUUUUUUUUUU
UUUUUUUUU
UUUUUU
UUUUUUU
UUUUUUUUUUU
UUUUUUUUUUU
UUUUUUUUUUUUUU
UUUUUUUUUUU
UUUUUUUUU
UUUUUUUU
UUUUUUUU
UUUUUUUU
UUUUUUUUU
UUUUUUUUU
UUUUUUUUU
UUUUUUUUU
UUUUUUUUUUUUUU
UUUUUUUUUUUUUUUUUUUUUUUU
UUUUUUUUUUUUUUUUUUUUUUUUUU
UUUUUUUUU










U?U?U?U?U?U?U?

EAAUAA?EAAUAAAAAUEAAUAA?AAA?UAAUUAAAAAU
EAA?  EAA?AAAAAA?EAA?        AAAAAA?
  AAAU        
              
UAAAAAU      UAAAAAUAAAAAA?UAAAAAU        AAAAAA?
            AAAAAA?UAAAAAUAAAAAA?        UAAAAAU
                    
                    
AAAU      AAAU      AAAAAAAAAUAAAAAAAAAUAAAAAAAAAUAAAU  AAAU   AAAU   AAAAAAAAAU

Young.Adult.2011.CAM.READNFO.XViD-SIC

Poster:

IMDB Link:
www.imdb.com/title/tt1625346/

Description:
Soon after her divorce, a fiction writer returns to her home in small-town Minnesota, 
looking to rekindle a romance with her ex-boyfriend, who is now married with kids. 

MediaInfo:
Format                           : AVI
Format/Info                      : Audio Video Interleave
File size                        : 691 MiB
Duration                         : 1h 29mn
Overall bit rate                 : 1 078 Kbps
Writing library                  : VirtualDub build 31536/release

Video
ID                               : 0
Format                           : MPEG-4 Visual
Format profile                   : Advanced Simple@L5
Format settings, BVOP            : 2
Format settings, QPel            : No
Format settings, GMC             : No warppoints
Format settings, Matrix          : Default (MPEG)
Muxing mode                      : Packed bitstream
Codec ID                         : XVID
Codec ID/Hint                    : XviD
Duration                         : 1h 29mn
Bit rate                         : 927 Kbps
Width                            : 600 pixels
Height                           : 380 pixels
Display aspect ratio             : 1.579
Frame rate                       : 59.940 fps
Color space                      : YUV
Chroma subsampling               : 4:2:0
Bit depth                        : 8 bits
Scan type                        : Progressive
Compression mode                 : Lossy
Bits/(Pixel*Frame)               : 0.068
Stream size                      : 594 MiB (86%)
Writing library                  : XviD 64

Audio
ID                               : 1
Format                           : MPEG Audio
Format version                   : Version 1
Format profile                   : Layer 3
Mode                             : Joint stereo
Mode extension                   : MS Stereo
Codec ID                         : 55
Codec ID/Hint                    : MP3
Duration                         : 1h 29mn
Bit rate mode                    : Constant
Bit rate                         : 128 Kbps
Channel(s)                       : 2 channels
Sampling rate                    : 48.0 KHz
Compression mode                 : Lossy
Stream size                      : 82.1 MiB (12%)
Alignment                        : Split accross interleaves
Interleave, duration             : 17 ms (1.00 video frame)
Interleave, preload duration     : 500 ms

Screenshots:

Note : 
Ok big thanks to 26k for giving me files, nice one bro Well what can i say? its 
not the best CAM ever. Was done at an angle so abit overcropped at the left side
...and had a big ass chair in the middle, so that even less of a picture :(... 
but its the only source around so be lucky its here at all... anyway rotated 
video the best i could, then cropped and resized to what i thought was "ok"... 
then filtered and tweaked picture to my liking by sharping, changing levels etc 
so for now if you like CAMs enjoy underwise wait for retail or pay and see it. 
But always Remember its FREE so dont b"tch and cry about the quality 

Source: 
Thanks 26K for the source files :) 

Enjoy!

Respects to T00NG0D, ELEKTRI4KA, PA, YeFsTe, Box, MrRep and everyone in the struggle...